<?xml version="1.0" encoding="utf-8"?>
<!-- Generator: Adobe Illustrator 21.0.0, SVG Export Plug-In . SVG Version: 6.00 Build 0)  -->
<svg version="1.1" id="图层_1" xmlns="http://www.w3.org/2000/svg" xmlns:xlink="http://www.w3.org/1999/xlink" x="0px" y="0px"
	 viewBox="0 0 200 200" style="enable-background:new 0 0 200 200;" xml:space="preserve">
<style type="text/css">
	.st0{fill:#666666;}
	.st1{fill:#FFFFFF;}
</style>
<path class="st0" d="M5.8,100c0,52,42.1,94.2,94.2,94.2s94.2-42.1,94.2-94.2v-0.1c0-52-42.2-94.2-94.2-94.2S5.8,47.9,5.8,100z"/>
<path class="st1" d="M106.3,100l32.9-32.9c1.7-1.7,1.7-4.4,0-6.1l-0.2-0.2c-1.7-1.7-4.4-1.7-6.1,0l-32.9,33l-32.9-33
	c-1.7-1.7-4.4-1.7-6.1,0L60.8,61c-1.7,1.7-1.7,4.4,0,6.1l32.9,33L60.8,133c-1.7,1.7-1.7,4.4,0,6.1l0.2,0.2c1.7,1.7,4.4,1.7,6.1,0
	l32.9-32.9l32.9,32.9c1.7,1.7,4.4,1.7,6.1,0l0.2-0.2c1.7-1.7,1.7-4.4,0-6.1L106.3,100z"/>
</svg>
